<?xml version="1.0" standalone="no"?>
<!DOCTYPE svg PUBLIC "-//W3C//DTD SVG 20010904//EN"
 "http://www.w3.org/TR/2001/REC-SVG-20010904/DTD/svg10.dtd">
<svg version="1.0" xmlns="http://www.w3.org/2000/svg"
 width="2029.000000pt" height="2029.000000pt" viewBox="0 0 2029.000000 2029.000000"
 preserveAspectRatio="xMidYMid meet">
<metadata>
Created by potrace 1.11, written by Peter Selinger 2001-2013
</metadata>
<g transform="translate(0.000000,2029.000000) scale(0.100000,-0.100000)"
fill="#000000" stroke="none">
<path d="M11375 19013 c-275 -55 -512 -147 -763 -295 l-82 -49 28 -42 c89
-130 244 -424 317 -602 48 -115 127 -356 153 -465 76 -311 97 -496 96 -815 -1
-203 -10 -347 -29 -445 -3 -13 -7 -42 -11 -64 -10 -67 -11 -67 -109 -20 -208
101 -481 208 -682 268 -101 30 -374 100 -438 112 -11 2 -40 8 -65 14 -25 5
-56 12 -70 14 -14 2 -36 7 -50 10 -14 3 -36 8 -50 10 -14 2 -36 7 -50 10 -14
3 -43 8 -65 11 -22 3 -47 7 -55 10 -8 2 -35 6 -60 9 -25 3 -54 8 -66 10 -12 2
-45 7 -74 11 -29 4 -61 8 -71 10 -10 2 -45 6 -78 10 -33 3 -68 7 -78 9 -10 2
-49 7 -88 11 -38 4 -83 8 -100 10 -382 41 -1078 51 -1485 20 -25 -2 -79 -6
-120 -9 -41 -3 -95 -8 -120 -11 -25 -2 -70 -7 -100 -10 -66 -7 -115 -13 -172
-21 -24 -3 -59 -7 -78 -9 -31 -3 -231 -33 -330 -50 -91 -15 -176 -31 -220 -40
-14 -3 -34 -7 -45 -9 -80 -15 -190 -39 -240 -53 -33 -8 -69 -17 -80 -19 -50
-10 -63 -13 -105 -25 -25 -7 -49 -13 -55 -15 -239 -57 -834 -252 -1000 -328
-16 -8 -73 -32 -125 -54 -653 -270 -1317 -688 -1810 -1138 -134 -122 -447
-445 -611 -629 -24 -27 -49 -55 -54 -61 -6 -6 -35 -39 -65 -74 -30 -34 -59
-68 -65 -74 -95 -107 -282 -339 -408 -506 -48 -63 -91 -120 -96 -126 -4 -5
-13 -20 -20 -31 -6 -12 -17 -28 -24 -35 -25 -25 -233 -342 -324 -493 -190
-317 -346 -632 -482 -974 -35 -88 -150 -415 -155 -444 -2 -7 -11 -39 -21 -72
-10 -33 -20 -66 -21 -73 -1 -7 -11 -43 -23 -80 -24 -83 -101 -376 -107 -411
-3 -14 -9 -39 -14 -56 -5 -16 -11 -41 -14 -55 -8 -40 -15 -70 -20 -88 -3 -9
-8 -30 -11 -47 -2 -16 -7 -41 -11 -55 -17 -75 -76 -389 -89 -475 -9 -55 -18
-113 -21 -130 -4 -16 -8 -43 -9 -60 -2 -16 -5 -43 -8 -60 -11 -67 -31 -234
-42 -360 -3 -38 -8 -84 -10 -102 -27 -200 -27 -981 1 -1278 7 -80 52 -462 59
-500 3 -16 8 -46 11 -65 3 -19 8 -48 11 -65 64 -401 204 -931 338 -1275 113
-290 229 -525 510 -1035 70 -127 249 -404 366 -565 138 -192 320 -467 374
-565 275 -501 409 -975 372 -1310 -14 -134 -70 -270 -142 -348 -47 -51 -45
-86 4 -94 40 -6 373 153 460 220 53 40 269 250 321 312 102 121 176 213 234
290 36 50 70 95 74 100 35 45 138 204 171 265 40 74 94 223 106 290 19 110 22
158 20 280 -2 74 -6 149 -9 167 -27 169 -44 238 -92 388 -37 114 -118 319
-173 438 -17 37 -44 95 -60 130 -16 34 -57 121 -91 192 -243 511 -494 1129
-631 1550 -28 88 -55 169 -60 180 -32 75 -163 570 -229 861 -34 153 -51 240
-94 469 -7 38 -25 140 -30 175 -20 128 -36 233 -41 280 -3 30 -8 66 -10 80 -2
14 -6 52 -10 85 -3 33 -8 71 -10 85 -2 14 -6 61 -10 105 -4 44 -8 96 -10 115
-12 125 -19 335 -19 595 -1 413 17 686 65 995 6 36 12 81 15 100 2 19 8 55 14
80 5 25 11 59 14 75 12 86 85 386 126 520 12 39 23 77 25 85 6 26 82 243 98
283 9 20 16 40 16 42 1 3 8 21 16 41 8 20 15 39 15 43 0 20 140 328 235 516
185 366 381 683 620 1000 142 188 127 169 284 354 132 155 482 511 617 627 44
38 100 86 125 107 86 75 306 236 434 319 261 170 582 339 883 464 48 20 101
42 117 49 17 7 68 28 115 45 47 18 99 38 115 45 84 35 417 143 625 202 101 28
474 123 510 129 14 3 57 11 95 20 75 16 86 18 155 29 25 4 54 9 65 11 30 6
134 23 180 29 22 3 54 7 70 10 17 2 55 7 85 10 30 3 73 8 95 10 255 27 832 27
1195 0 93 -7 187 -16 325 -30 66 -7 283 -35 318 -40 62 -11 84 -14 127 -20 25
-3 52 -8 60 -10 8 -2 33 -6 55 -10 22 -3 54 -8 70 -11 17 -2 57 -9 90 -15 33
-5 80 -14 105 -19 25 -5 56 -12 70 -14 54 -9 199 -40 525 -113 187 -41 347
-76 355 -78 176 -39 666 -151 728 -166 45 -12 89 -18 97 -15 42 16 -7 151 -80
222 -48 46 -130 104 -146 104 -6 0 -8 8 -5 18 10 33 102 436 120 522 3 14 7
34 10 45 7 29 133 644 139 680 3 17 10 58 16 93 7 35 14 75 16 90 2 15 8 52
14 82 6 30 13 73 16 95 3 23 7 50 9 60 7 36 17 99 20 130 5 36 17 123 22 147
1 9 6 48 9 85 4 37 9 76 10 85 2 9 6 52 10 95 3 43 8 96 11 118 3 22 5 112 5
200 0 387 -66 474 -366 480 -66 2 -129 1 -140 -2z"/>
<path d="M15087 18074 c-1 -1 -47 -5 -102 -9 -160 -11 -161 -11 -305 -31 -19
-3 -46 -7 -60 -10 -14 -2 -38 -7 -55 -10 -61 -10 -261 -56 -305 -69 -270 -83
-383 -124 -570 -208 -138 -62 -391 -196 -468 -248 -24 -16 -45 -29 -48 -29 -9
0 -194 -128 -309 -213 -140 -105 -293 -231 -385 -317 -275 -257 -493 -494
-673 -733 -134 -179 -176 -244 -170 -267 6 -24 33 -33 63 -22 67 25 281 -62
488 -200 41 -26 77 -48 82 -48 5 0 10 -3 12 -7 2 -5 46 -40 98 -79 52 -39 124
-97 160 -129 197 -177 515 -398 775 -540 39 -21 93 -50 120 -65 128 -71 331
-167 590 -280 187 -81 546 -205 794 -275 121 -34 356 -92 401 -100 19 -3 49
-10 65 -15 17 -5 57 -14 90 -20 33 -5 71 -12 85 -15 45 -9 194 -34 240 -40 25
-3 56 -8 70 -10 14 -2 45 -7 70 -10 25 -3 63 -8 85 -11 43 -7 54 -8 185 -19
47 -4 101 -9 120 -11 223 -22 819 -22 995 1 16 2 63 6 105 9 41 3 84 8 95 10
11 2 47 7 80 10 33 4 87 12 120 17 33 6 74 13 90 15 17 2 53 8 80 14 28 5 66
12 85 15 129 20 630 158 760 210 19 7 71 27 115 44 480 179 987 475 1345 785
84 73 190 180 190 192 0 24 -29 44 -53 35 -38 -14 -142 -4 -239 24 -186 53
-394 146 -663 299 -211 120 -342 212 -495 351 -76 68 -367 362 -530 535 -430
455 -704 697 -1024 907 -257 169 -587 323 -871 406 -124 37 -264 72 -325 82
-19 3 -55 10 -80 15 -40 9 -189 29 -320 44 -110 13 -593 28 -603 20z m-57
-1118 c144 -11 328 -41 515 -85 391 -92 709 -240 928 -432 51 -45 80 -78 167
-186 20 -24 70 -132 76 -162 8 -41 -4 -40 -62 5 -91 68 -255 159 -419 229
-151 65 -436 146 -625 179 -113 19 -151 24 -230 32 -36 3 -94 9 -130 14 -67 7
-591 5 -645 -3 -16 -3 -66 -8 -110 -11 -83 -7 -144 -13 -205 -21 -90 -12 -127
-16 -150 -20 -14 -2 -49 -7 -79 -10 -30 -4 -61 -8 -70 -10 -9 -1 -36 -6 -61
-10 -25 -4 -54 -9 -65 -11 -10 -2 -35 -6 -55 -9 -20 -3 -47 -7 -60 -10 -24 -5
-110 -21 -167 -31 -16 -3 -62 -12 -103 -21 -41 -8 -82 -16 -90 -18 -109 -22
-318 -69 -336 -76 -13 -4 -24 -7 -24 -5 0 2 -96 -21 -212 -50 -117 -30 -220
-56 -229 -58 -125 -31 -604 -171 -744 -219 -39 -13 -76 -22 -82 -20 -21 7 -2
31 40 54 23 11 65 34 92 49 110 61 637 320 651 320 3 0 31 12 62 26 94 43 110
50 277 117 88 35 201 79 250 97 50 18 99 36 110 41 96 41 560 177 735 214 41
9 84 18 95 21 80 18 292 54 350 59 39 4 73 9 76 11 4 2 78 7 165 10 88 4 160
7 161 8 3 2 127 -2 203 -8z"/>
<path d="M10147 15014 c-1 -1 -60 -5 -132 -9 -71 -3 -141 -8 -155 -10 -14 -2
-50 -7 -80 -10 -30 -4 -66 -8 -80 -10 -203 -32 -329 -56 -505 -95 -433 -97
-870 -228 -1110 -335 -67 -29 -225 -109 -325 -163 -119 -64 -333 -204 -485
-317 -346 -257 -648 -540 -970 -910 -126 -144 -315 -392 -409 -537 -229 -353
-413 -722 -444 -894 -30 -170 68 -226 248 -142 135 63 211 131 453 403 228
256 341 363 577 546 108 84 327 231 440 296 157 91 387 205 545 271 434 181
929 310 1370 357 33 4 71 8 85 11 159 25 734 24 965 -1 63 -8 127 -15 165 -20
19 -3 53 -7 75 -10 22 -3 52 -7 68 -10 15 -3 37 -7 50 -9 396 -69 775 -184
1127 -344 736 -332 1371 -874 1815 -1547 297 -450 515 -962 649 -1525 20 -83
82 -415 91 -490 4 -25 8 -56 10 -70 2 -14 6 -54 10 -90 3 -36 8 -72 10 -80 4
-15 13 -142 21 -285 6 -110 6 -551 0 -650 -9 -141 -16 -236 -21 -280 -2 -22
-7 -67 -10 -100 -7 -69 -16 -142 -21 -169 -2 -10 -6 -44 -9 -75 -4 -31 -8 -63
-10 -71 -2 -8 -7 -35 -10 -60 -3 -25 -8 -52 -10 -60 -2 -8 -7 -33 -10 -55 -3
-22 -21 -114 -40 -205 -20 -91 -38 -176 -41 -190 -8 -40 -84 -331 -99 -380 -8
-25 -26 -85 -41 -135 -14 -49 -37 -119 -49 -155 -54 -156 -97 -276 -105 -295
-5 -11 -29 -72 -53 -135 -25 -63 -56 -140 -70 -170 -13 -30 -39 -89 -57 -130
-91 -211 -286 -585 -422 -809 -103 -169 -266 -413 -383 -571 -81 -110 -65 -90
-195 -250 -457 -562 -1008 -1042 -1560 -1359 -69 -39 -132 -75 -140 -81 -89
-54 -394 -193 -570 -259 -259 -98 -608 -195 -820 -227 -19 -3 -55 -10 -79 -15
-24 -5 -65 -12 -90 -15 -25 -3 -48 -7 -51 -9 -3 -2 -34 -6 -70 -10 -36 -4 -72
-8 -80 -10 -8 -2 -44 -6 -80 -10 -36 -3 -76 -8 -90 -10 -23 -3 -82 -9 -225
-20 -304 -25 -839 -25 -1140 0 -84 6 -184 16 -220 20 -81 10 -153 18 -180 20
-28 3 -96 12 -155 20 -14 2 -50 7 -80 10 -30 3 -66 8 -80 10 -14 2 -63 9 -110
15 -134 17 -163 21 -190 25 -37 6 -178 24 -235 30 -27 3 -57 7 -65 10 -8 2
-44 6 -80 10 -36 3 -81 8 -100 10 -19 3 -57 7 -85 10 -47 4 -80 8 -195 21 -68
7 -276 22 -430 29 -92 5 -516 5 -585 1 -200 -14 -246 -17 -262 -20 -10 -2 -54
-7 -98 -11 -44 -3 -91 -8 -105 -10 -14 -2 -61 -7 -105 -10 -44 -3 -93 -8 -110
-10 -16 -3 -52 -7 -80 -10 -187 -20 -362 -67 -495 -133 -75 -37 -111 -62 -171
-122 -120 -118 -134 -170 -51 -187 46 -10 243 -10 297 0 22 4 56 9 75 13 19 3
53 10 75 16 22 5 48 12 57 14 10 2 26 6 35 8 135 34 280 60 403 71 30 3 66 7
80 10 34 5 180 17 265 21 94 4 469 4 525 0 265 -20 302 -24 340 -31 14 -2 57
-7 95 -10 39 -3 84 -8 100 -10 17 -3 43 -7 58 -9 15 -3 58 -8 95 -12 37 -3 70
-8 73 -10 4 -2 31 -6 60 -10 30 -3 104 -14 164 -24 61 -10 128 -21 150 -24 22
-4 99 -17 170 -31 72 -13 141 -26 155 -29 146 -26 506 -106 730 -161 80 -20
153 -38 163 -40 10 -2 26 -6 35 -9 9 -3 28 -7 42 -10 14 -3 57 -12 95 -21 184
-41 482 -96 605 -111 19 -2 46 -6 60 -9 14 -2 52 -7 85 -10 33 -4 69 -8 80
-10 11 -1 56 -6 100 -10 44 -4 91 -8 104 -10 171 -27 1175 -27 1304 -1 12 3
49 8 82 11 33 3 74 7 90 10 17 3 44 7 60 10 17 3 53 7 80 11 40 4 176 30 367
69 162 33 709 195 732 216 6 5 16 9 23 9 14 0 262 95 338 130 22 10 68 30 103
44 131 55 435 203 567 276 28 15 82 44 120 65 39 21 87 49 107 62 21 13 40 23
43 23 3 0 22 11 43 24 20 13 109 68 197 122 88 53 162 101 163 106 2 4 8 8 13
8 12 0 320 209 449 304 103 75 270 208 336 265 22 20 69 61 104 91 72 61 359
345 435 430 207 229 438 519 541 680 16 25 31 47 34 50 8 7 164 249 186 289
10 18 24 41 29 50 79 127 310 573 385 746 145 332 325 848 385 1102 3 10 9 36
15 58 6 22 13 51 16 65 3 14 16 68 29 120 19 79 41 180 70 330 8 39 24 131 30
170 3 19 7 46 10 60 2 14 7 45 10 70 3 25 8 52 10 60 2 8 7 44 10 80 4 36 8
72 10 80 2 8 6 47 10 85 4 39 8 81 10 95 2 14 7 66 10 115 4 50 8 106 10 125
7 74 18 412 18 560 -1 140 -7 317 -18 502 -6 100 -23 285 -39 413 -2 17 -7 55
-11 85 -3 30 -8 62 -10 70 -2 8 -7 39 -10 69 -4 30 -9 63 -11 75 -2 12 -6 37
-10 56 -3 19 -9 55 -14 80 -6 25 -12 56 -14 70 -7 43 -37 183 -46 220 -5 19
-11 49 -14 65 -3 17 -26 104 -51 195 -25 91 -47 172 -49 180 -2 8 -23 74 -47
145 -24 72 -43 132 -44 135 0 3 -6 19 -12 35 -7 17 -35 90 -63 162 -82 217
-252 584 -330 713 -5 8 -44 74 -86 145 -90 152 -193 307 -278 420 -488 647
-1176 1319 -1736 1695 -218 147 -684 403 -910 500 -41 18 -95 41 -120 53 -153
69 -490 181 -670 222 -175 41 -248 57 -274 60 -17 3 -42 7 -56 10 -42 9 -190
29 -290 40 -30 3 -71 8 -90 10 -97 11 -282 18 -533 19 -153 1 -279 1 -280 0z"/>
<path d="M11507 12614 c-3 -3 -164 -15 -232 -19 -33 -2 -107 -6 -165 -10 -58
-3 -136 -8 -175 -10 -38 -3 -97 -7 -130 -10 -33 -3 -91 -7 -130 -10 -38 -3
-86 -7 -105 -10 -19 -2 -57 -7 -85 -9 -165 -18 -334 -37 -360 -41 -16 -2 -55
-7 -85 -10 -73 -8 -213 -24 -275 -31 -27 -4 -67 -7 -87 -8 -29 0 -37 -4 -33
-16 2 -8 7 -31 10 -50 3 -19 10 -62 16 -95 6 -33 13 -71 15 -85 3 -14 9 -47
14 -75 5 -27 12 -63 15 -80 3 -16 23 -131 45 -255 23 -124 43 -241 46 -260 3
-19 7 -42 9 -50 5 -15 42 -222 50 -270 3 -20 25 -144 40 -221 2 -9 6 -34 9
-55 4 -22 11 -57 17 -79 6 -22 13 -103 15 -179 6 -196 18 -234 125 -381 32
-45 65 -97 74 -118 31 -74 13 -161 -57 -275 -21 -34 -38 -65 -38 -67 0 -3 -10
-22 -23 -43 -86 -137 -91 -231 -24 -437 25 -77 60 -187 77 -245 72 -238 176
-364 335 -406 48 -13 291 -14 312 -1 4 3 31 8 58 11 53 7 85 13 125 21 56 12
207 14 298 4 143 -15 164 -18 192 -24 14 -3 84 -8 155 -10 240 -9 325 -21 424
-57 101 -38 147 -77 269 -233 104 -132 138 -171 174 -196 25 -18 30 -18 94 -3
37 8 80 22 95 30 79 40 61 121 -66 294 -34 47 -65 90 -69 97 -3 6 18 43 46 82
143 192 214 286 224 295 60 61 248 300 268 341 50 98 38 207 -37 319 -35 53
-56 77 -202 231 -93 99 -144 180 -157 250 -6 32 -82 167 -159 280 -100 148
-154 258 -193 395 -99 348 -141 439 -236 515 -61 49 -69 61 -138 200 -115 229
-177 309 -303 391 -82 53 -143 117 -186 192 -49 86 -46 99 55 232 129 170 133
178 119 232 -6 23 -12 27 -38 25 -17 -1 -31 -3 -32 -3z"/>
</g>
</svg>
